<?xml version="1.0" encoding="UTF-8" standalone="no"?>
<!-- Created with Inkscape (http://www.inkscape.org/) -->

<svg
   width="120mm"
   height="140mm"
   viewBox="0 0 120 140"
   version="1.1"
   id="svg1"
   inkscape:version="1.3.2 (091e20e, 2023-11-25, custom)"
   sodipodi:docname="colophon4.svg"
   xmlns:inkscape="http://www.inkscape.org/namespaces/inkscape"
   xmlns:sodipodi="http://sodipodi.sourceforge.net/DTD/sodipodi-0.dtd"
   xmlns="http://www.w3.org/2000/svg"
   xmlns:svg="http://www.w3.org/2000/svg">
  <sodipodi:namedview
     id="namedview1"
     pagecolor="#ffffff"
     bordercolor="#000000"
     borderopacity="0.25"
     inkscape:showpageshadow="2"
     inkscape:pageopacity="0.0"
     inkscape:pagecheckerboard="false"
     inkscape:deskcolor="#d1d1d1"
     inkscape:document-units="mm"
     showguides="false"
     inkscape:zoom="1.0153385"
     inkscape:cx="227.01788"
     inkscape:cy="347.17484"
     inkscape:window-width="1600"
     inkscape:window-height="1191"
     inkscape:window-x="2391"
     inkscape:window-y="-9"
     inkscape:window-maximized="1"
     inkscape:current-layer="layer1" />
  <defs
     id="defs1" />
  <g
     inkscape:label="Layer 1"
     inkscape:groupmode="layer"
     id="layer1">
    <path
       sodipodi:type="star"
       style="fill:none;stroke:#cf705e;stroke-width:0.264583;stroke-opacity:1"
       id="path1"
       inkscape:flatsided="false"
       sodipodi:sides="3"
       sodipodi:cx="8.2901173"
       sodipodi:cy="14.115604"
       sodipodi:r1="56.814301"
       sodipodi:r2="28.40715"
       sodipodi:arg1="1.5707963"
       sodipodi:arg2="2.6179939"
       inkscape:rounded="0"
       inkscape:randomized="0"
       d="m 8.2901188,70.929905 -24.6013158,-42.610726 -24.601314,-42.610724 49.2026289,-1e-6 49.2026261,-10e-7 -24.601313,42.610727 z"
       inkscape:transform-center-y="14.203575"
       transform="translate(52.916694,51.32919)" />
    <path
       sodipodi:type="star"
       style="fill:none;stroke:#cf705e;stroke-width:0.264583;stroke-opacity:1"
       id="path1-0"
       inkscape:flatsided="false"
       sodipodi:sides="3"
       sodipodi:cx="8.2901173"
       sodipodi:cy="14.115604"
       sodipodi:r1="56.814301"
       sodipodi:r2="28.40715"
       sodipodi:arg1="1.5707963"
       sodipodi:arg2="2.6179939"
       inkscape:rounded="0"
       inkscape:randomized="0"
       d="m 8.2901188,70.929905 -24.6013158,-42.610726 -24.601314,-42.610724 49.2026289,-1e-6 49.2026261,-10e-7 -24.601313,42.610727 z"
       inkscape:transform-center-y="13.385734"
       transform="matrix(0.94542673,0,0,0.94242005,53.347505,52.001096)" />
    <text
       xml:space="preserve"
       style="font-style:normal;font-variant:normal;font-weight:normal;font-stretch:normal;font-size:5.64444px;font-family:'Freestyle Script';-inkscape-font-specification:'Freestyle Script';fill:#0000ff;stroke:#0000ff;stroke-width:0.264583"
       x="25.452169"
       y="44.468632"
       id="text2"><tspan
         sodipodi:role="line"
         id="tspan2"
         style="font-style:normal;font-variant:normal;font-weight:normal;font-stretch:normal;font-size:5.64444px;font-family:Century;-inkscape-font-specification:Century;fill:#cf705e;fill-opacity:1;stroke:#cf705e;stroke-width:0.264583;stroke-opacity:1"
         x="25.452169"
         y="44.468632">This is a list of manuscripts</tspan></text>
    <text
       xml:space="preserve"
       style="font-style:normal;font-variant:normal;font-weight:normal;font-stretch:normal;font-size:5.64444px;font-family:'Freestyle Script';-inkscape-font-specification:'Freestyle Script';fill:#0000ff;stroke:#0000ff;stroke-width:0.264583"
       x="32.173889"
       y="52.739655"
       id="text3"><tspan
         sodipodi:role="line"
         id="tspan3"
         style="font-style:normal;font-variant:normal;font-weight:normal;font-stretch:normal;font-size:5.64444px;font-family:Century;-inkscape-font-specification:Century;fill:#000000;stroke:#000000;stroke-width:0.264583"
         x="32.173889"
         y="52.739655">of the texts ascribed to</tspan></text>
    <text
       xml:space="preserve"
       style="font-style:normal;font-variant:normal;font-weight:normal;font-stretch:normal;font-size:5.64444px;font-family:'Freestyle Script';-inkscape-font-specification:'Freestyle Script';fill:#0000ff;stroke:#0000ff;stroke-width:0.264583"
       x="36.659679"
       y="61.134575"
       id="text4"><tspan
         sodipodi:role="line"
         id="tspan4"
         style="font-style:normal;font-variant:normal;font-weight:normal;font-stretch:normal;font-size:5.64444px;font-family:Century;-inkscape-font-specification:Century;fill:#cf705e;fill-opacity:1;stroke:#cf705e;stroke-width:0.264583;stroke-opacity:1"
         x="36.659679"
         y="61.134575">the Ikhwān al-Safā</tspan></text>
    <text
       xml:space="preserve"
       style="font-style:normal;font-variant:normal;font-weight:normal;font-stretch:normal;font-size:5.64444px;font-family:'Freestyle Script';-inkscape-font-specification:'Freestyle Script';fill:#0000ff;stroke:#0000ff;stroke-width:0.264583"
       x="41.565189"
       y="69.486641"
       id="text5"><tspan
         sodipodi:role="line"
         style="font-style:normal;font-variant:normal;font-weight:normal;font-stretch:normal;font-size:5.64444px;font-family:Century;-inkscape-font-specification:Century;fill:#000000;stroke:#000000;stroke-width:0.264583"
         x="41.565189"
         y="69.486641"
         id="tspan6">collected by the</tspan></text>
    <text
       xml:space="preserve"
       style="font-style:normal;font-variant:normal;font-weight:normal;font-stretch:normal;font-size:5.64444px;font-family:'Freestyle Script';-inkscape-font-specification:'Freestyle Script';fill:#0000ff;stroke:#0000ff;stroke-width:0.264583"
       x="45.53627"
       y="77.166534"
       id="text7"><tspan
         sodipodi:role="line"
         id="tspan7"
         style="font-style:normal;font-variant:normal;font-weight:normal;font-stretch:normal;font-size:5.64444px;font-family:Century;-inkscape-font-specification:Century;fill:#cf705e;fill-opacity:1;stroke:#cf705e;stroke-width:0.264583;stroke-opacity:1"
         x="45.53627"
         y="77.166534">poor  servant</tspan></text>
    <text
       xml:space="preserve"
       style="font-style:normal;font-variant:normal;font-weight:normal;font-stretch:normal;font-size:5.64444px;line-height:0;font-family:'Freestyle Script';-inkscape-font-specification:'Freestyle Script';letter-spacing:0.148167px;fill:#0000ff;stroke:#0000ff;stroke-width:0.264583"
       x="49.855309"
       y="85.237244"
       id="text8"><tspan
         sodipodi:role="line"
         id="tspan8"
         style="font-style:normal;font-variant:normal;font-weight:normal;font-stretch:normal;font-size:5.64444px;line-height:0;font-family:Century;-inkscape-font-specification:Century;letter-spacing:0.148167px;fill:#1a1a1a;stroke:#000000;stroke-width:0.264583"
         x="49.855309"
         y="85.237244">Gowaart</tspan></text>
    <text
       xml:space="preserve"
       style="font-style:normal;font-variant:normal;font-weight:normal;font-stretch:normal;font-size:5.64444px;font-family:'Freestyle Script';-inkscape-font-specification:'Freestyle Script';fill:#0000ff;stroke:#0000ff;stroke-width:0.264583"
       x="50.527481"
       y="93.580017"
       id="text9"><tspan
         sodipodi:role="line"
         id="tspan9"
         style="font-style:normal;font-variant:normal;font-weight:normal;font-stretch:normal;font-size:5.64444px;font-family:Century;-inkscape-font-specification:Century;fill:#cf705e;fill-opacity:1;stroke:#cf705e;stroke-width:0.264583;stroke-opacity:1"
         x="50.527481"
         y="93.580017">Van Den</tspan></text>
    <text
       xml:space="preserve"
       style="font-style:normal;font-variant:normal;font-weight:normal;font-stretch:normal;font-size:5.64444px;font-family:'Freestyle Script';-inkscape-font-specification:'Freestyle Script';fill:#0000ff;stroke:#0000ff;stroke-width:0.264583"
       x="59.852184"
       y="109.34042"
       id="text12"><tspan
         sodipodi:role="line"
         id="tspan12"
         style="font-style:normal;font-variant:normal;font-weight:normal;font-stretch:normal;font-size:5.64444px;font-family:Century;-inkscape-font-specification:Century;fill:#cf705e;fill-opacity:1;stroke:#cf705e;stroke-width:0.264583;stroke-opacity:1"
         x="59.852184"
         y="109.34042">e</tspan></text>
    <text
       xml:space="preserve"
       style="font-style:normal;font-variant:normal;font-weight:normal;font-stretch:normal;font-size:5.64444px;font-family:'Freestyle Script';-inkscape-font-specification:'Freestyle Script';fill:#0000ff;stroke:#0000ff;stroke-width:0.264583"
       x="52.64415"
       y="101.48397"
       id="text20"><tspan
         sodipodi:role="line"
         id="tspan20"
         style="font-style:normal;font-variant:normal;font-weight:normal;font-stretch:normal;font-size:5.64444px;font-family:Century;-inkscape-font-specification:Century;fill:#000000;stroke:#000000;stroke-width:0.264583"
         x="52.64415"
         y="101.48397">Bossch</tspan></text>
    <text
       xml:space="preserve"
       style="font-style:normal;font-variant:normal;font-weight:normal;font-stretch:normal;font-size:5.64444px;font-family:'Freestyle Script';-inkscape-font-specification:'Freestyle Script';fill:#535c95;stroke:#535c95;stroke-width:0.264583;fill-opacity:1;stroke-opacity:1"
       x="53.575367"
       y="132.57825"
       id="text20-6"><tspan
         sodipodi:role="line"
         id="tspan20-1"
         style="font-style:normal;font-variant:normal;font-weight:normal;font-stretch:normal;font-size:5.64444px;font-family:Century;-inkscape-font-specification:Century;fill:#535c95;stroke:#535c95;stroke-width:0.264583;fill-opacity:1;stroke-opacity:1"
         x="53.575367"
         y="132.57825">about</tspan></text>
    <circle
       style="fill:none;fill-opacity:1;stroke:#cf705e;stroke-width:0.264583;stroke-opacity:1"
       id="path21"
       cx="61.515636"
       cy="135.8634"
       r="11.773958" />
    <circle
       style="fill:none;fill-opacity:1;stroke:#cf705e;stroke-width:0.293981;stroke-opacity:1"
       id="path21-0"
       cx="61.647942"
       cy="135.73117"
       r="13.082176" />
    <rect
       style="fill:#cf705e;fill-opacity:0;stroke:#cf705e;stroke-width:0.232042;stroke-opacity:1"
       id="rect22"
       width="110.62837"
       height="20.140879"
       x="4.4816461"
       y="7.9212294"
       rx="11.728452"
       ry="10.070439" />
    <path
       id="rect23"
       style="fill:#cf705e;fill-opacity:0;stroke:#cf705e;stroke-width:0.226997;stroke-opacity:1"
       d="m 14.379911,6.5957903 c -6.3645782,0 -11.4882872,4.8756257 -11.4882872,10.9318817 v 1.19257 c 0,6.056256 5.123709,10.931882 11.4882872,10.931882 h 90.831849 c 6.36458,0 11.48829,-4.875626 11.48829,-10.931882 v -1.19257 c 0,-6.056256 -5.12371,-10.9318817 -11.48829,-10.9318817 z" />
    <text
       xml:space="preserve"
       style="font-style:normal;font-variant:normal;font-weight:normal;font-stretch:normal;font-size:14.1111px;font-family:'SH_Roq\'a';-inkscape-font-specification:'SH_Roq\'a';letter-spacing:0px;word-spacing:0px;fill:#535c95;fill-opacity:1;stroke:#535c95;stroke-width:0.264583;stroke-opacity:1"
       x="11.39148"
       y="22.263088"
       id="text23-0"><tspan
         sodipodi:role="line"
         id="tspan23-6"
         style="font-style:normal;font-variant:normal;font-weight:normal;font-stretch:normal;font-size:14.1111px;font-family:'DecoType Thuluth';-inkscape-font-specification:'DecoType Thuluth';fill:#535c95;fill-opacity:1;stroke:#535c95;stroke-width:0.264583;stroke-opacity:1"
         x="11.39148"
         y="22.263088">مخطوطات  إخوان  الصفا</tspan></text>
    <text
       xml:space="preserve"
       style="font-style:normal;font-variant:normal;font-weight:normal;font-stretch:normal;font-size:14.1111px;font-family:'SH_Roq\'a';-inkscape-font-specification:'SH_Roq\'a';letter-spacing:0px;word-spacing:0px;fill:#535c95;fill-opacity:1;stroke:#535c95;stroke-width:0.264583;stroke-opacity:1"
       x="57.805996"
       y="103.35735"
       id="text23-0-2"><tspan
         sodipodi:role="line"
         id="tspan23-6-0"
         style="font-style:normal;font-variant:normal;font-weight:normal;font-stretch:normal;font-size:14.1111px;font-family:'DecoType Thuluth';-inkscape-font-specification:'DecoType Thuluth';fill:#535c95;fill-opacity:1;stroke:#535c95;stroke-width:0.264583;stroke-opacity:1"
         x="57.805996"
         y="103.35735" /></text>
    <text
       xml:space="preserve"
       style="font-style:normal;font-variant:normal;font-weight:normal;font-stretch:normal;font-size:14.1111px;font-family:'SH_Roq\'a';-inkscape-font-specification:'SH_Roq\'a';letter-spacing:0px;word-spacing:0px;display:none;fill:#cf705e;fill-opacity:1;stroke:#cf705e;stroke-width:0.264583;stroke-opacity:1"
       x="11.377007"
       y="22.225004"
       id="text23"><tspan
         sodipodi:role="line"
         id="tspan23"
         style="font-style:normal;font-variant:normal;font-weight:normal;font-stretch:normal;font-size:14.1111px;font-family:'DecoType Thuluth';-inkscape-font-specification:'DecoType Thuluth';fill:#cf705e;fill-opacity:1;stroke-width:0.264583"
         x="11.377007"
         y="22.225004">مخطوطات  إخوان  الصفا</tspan></text>
    <path
       id="text23-7"
       style="font-size:14.1111px;font-family:'DecoType Thuluth';-inkscape-font-specification:'DecoType Thuluth';letter-spacing:0px;word-spacing:0px;fill:#cf705e;stroke:#cf705e;stroke-width:0.264583"
       d="m 39.891105,13.681852 c -0.03675,-0.0046 -0.06167,0.03675 -0.07545,0.124024 -0.0735,0.293979 -0.135506,0.518717 -0.186036,0.674894 0.0092,0.0781 0.02033,0.133214 0.03411,0.165364 0.01837,0.02756 0.133383,0.09646 0.344682,0.206706 0.229671,0.119425 0.386025,0.179317 0.468705,0.179317 0.0689,0 0.12827,-0.117135 0.1788,-0.351399 0.02297,-0.151584 0.04841,-0.303168 0.07597,-0.454753 0.01837,-0.08268 0.01361,-0.130914 -0.01395,-0.144694 -0.02756,-0.01378 -0.05725,-0.02542 -0.0894,-0.03462 C 40.35292,13.908883 40.146214,13.81242 40.008411,13.7573 Z m 15.186153,2.039152 c -0.03675,-0.0046 -0.06218,0.03675 -0.07596,0.124024 -0.0735,0.293979 -0.135505,0.519234 -0.186035,0.675411 0.0092,0.0781 0.02084,0.133214 0.03462,0.165364 0.01837,0.02756 0.133383,0.09646 0.344682,0.206706 0.229673,0.119425 0.385508,0.179317 0.468188,0.179317 0.0689,0 0.128789,-0.117134 0.179317,-0.3514 0.02297,-0.151582 0.0484,-0.303167 0.07596,-0.454752 0.01837,-0.08268 0.01361,-0.130914 -0.01395,-0.144694 -0.02756,-0.01378 -0.05725,-0.02542 -0.0894,-0.03462 -0.275608,-0.137805 -0.482314,-0.234268 -0.620117,-0.289388 z m 46.299492,0.239916 c -0.0581,0.208814 -0.0471,0.118926 -0.0608,0.205874 -0.1612,0.457684 -0.14431,0.495848 -0.19481,0.652025 -0.0115,0.133632 0.0788,0.136138 0.0926,0.168288 0.0184,0.02756 0.16262,0.108153 0.37392,0.218399 0.22967,0.119423 0.48355,0.234732 0.60025,0.307941 0.0913,0.05724 0.12538,-0.155136 0.17588,-0.389402 0.0435,-0.21005 0.0487,-0.179967 0.0701,-0.466446 -0.0268,-0.08035 -0.0156,-0.08122 -0.0431,-0.095 -0.0276,-0.01378 0.048,-0.0079 -0.18294,-0.163244 -0.27561,-0.137805 -0.45016,-0.245961 -0.58797,-0.301081 z m -84.464087,0.538848 c -0.114837,0.404224 -0.197517,0.686723 -0.248047,0.847494 0,0.09187 0.02969,0.156003 0.0894,0.192753 0.234266,0.124023 0.468533,0.245922 0.7028,0.365352 0.188326,-0.234267 0.28267,-0.505111 0.28267,-0.81287 0,-0.09187 -0.08268,-0.177192 -0.248047,-0.255282 -0.266421,-0.128617 -0.459346,-0.240987 -0.578776,-0.337447 z m 56.058077,0.01395 c -0.04134,0 -0.110246,0.121384 -0.206706,0.364835 -0.09186,0.22508 -0.137459,0.353873 -0.137459,0.386023 0,0.07349 0.124023,0.18374 0.37207,0.330729 0.179145,0.09646 0.35829,0.19505 0.537435,0.296106 0.09187,-0.09187 0.174557,-0.245577 0.248047,-0.46147 0.06431,-0.179145 0.09612,-0.305298 0.09612,-0.378788 0,-0.09646 -0.30317,-0.27561 -0.909505,-0.537435 z m -1.439706,0.124023 c -0.225077,0.514469 -0.337964,0.796964 -0.337964,0.847494 0,0.07809 0.161118,0.211128 0.482658,0.399458 0.293983,0.174547 0.459344,0.262 0.496094,0.262 0.08727,0 0.165194,-0.09646 0.234094,-0.289388 0.05512,-0.160771 0.08268,-0.298575 0.08268,-0.413412 0,-0.105647 -0.101229,-0.218535 -0.303341,-0.337963 -0.298575,-0.169958 -0.51642,-0.325792 -0.654224,-0.468189 z m -9.59838,6.545337 c -0.206705,0 -0.454753,0.158476 -0.744141,0.475423 -0.289388,0.316948 -0.434082,0.578776 -0.434082,0.785482 0,0.105649 0.06201,0.215892 0.186035,0.330729 0.128617,0.114825 0.252641,0.174717 0.372071,0.179317 -0.183738,0.09187 -0.316779,0.186212 -0.399459,0.28267 l -0.172083,0.261483 c -0.05053,0.0735 -0.07596,0.133387 -0.07596,0.179317 0,0.128617 0.08532,0.121727 0.255281,-0.02067 0.284794,-0.238859 0.63832,-0.468361 1.060918,-0.688847 0.390442,-0.202112 0.63585,-0.353697 0.736906,-0.454753 0.133203,-0.128615 0.199987,-0.282842 0.199987,-0.461987 0,-0.03675 -0.01378,-0.05266 -0.04134,-0.04806 -0.564993,0.339916 -0.909507,0.510046 -1.033528,0.510046 -0.206705,0 -0.445222,-0.135679 -0.716236,-0.406693 0.261827,-0.252641 0.43144,-0.383541 0.50953,-0.392741 0.08269,0 0.142567,0.03445 0.179317,0.103353 0.06431,0.110244 0.11679,0.181274 0.15813,0.213424 0.05972,0.0046 0.119607,-0.0712 0.179317,-0.227377 0.04593,-0.128618 0.06873,-0.213425 0.06873,-0.254765 0,-0.243451 -0.09646,-0.365352 -0.289388,-0.365352 z M 60.296227,135.49949 c -0.03675,-0.005 -0.06218,0.0368 -0.07596,0.12403 -0.0735,0.29398 -0.135505,0.51923 -0.186035,0.67541 0.0092,0.0781 0.02084,0.13321 0.03462,0.16536 0.01837,0.0276 0.133383,0.0965 0.344682,0.20671 0.229673,0.11942 0.385508,0.17932 0.468188,0.17932 0.0689,0 0.128789,-0.11714 0.179317,-0.3514 0.02297,-0.15159 0.0484,-0.30317 0.07596,-0.45476 0.01837,-0.0827 0.01361,-0.13091 -0.01395,-0.14469 -0.02756,-0.0138 -0.05725,-0.0254 -0.0894,-0.0346 -0.275608,-0.13781 -0.482314,-0.23427 -0.620117,-0.28939 z m 1.469978,-0.0136 c -0.03675,-0.005 -0.06218,0.0368 -0.07596,0.12403 -0.0735,0.29398 -0.135505,0.51923 -0.186035,0.67541 0.0092,0.0781 0.02084,0.13321 0.03462,0.16536 0.01837,0.0276 0.133383,0.0965 0.344682,0.20671 0.229673,0.11942 0.385508,0.17932 0.468188,0.17932 0.0689,0 0.128789,-0.11714 0.179317,-0.3514 0.02297,-0.15159 0.0484,-0.30317 0.07596,-0.45476 0.01837,-0.0827 0.01361,-0.13091 -0.01395,-0.14469 -0.02756,-0.0138 -0.05725,-0.0254 -0.0894,-0.0346 -0.275608,-0.13781 -0.482314,-0.23427 -0.620117,-0.28939 z m -0.529167,1.58749 c -0.03675,-0.005 -0.06218,0.0368 -0.07596,0.12403 -0.0735,0.29398 -0.135505,0.51923 -0.186035,0.67541 0.0092,0.0781 0.02084,0.13321 0.03462,0.16536 0.01837,0.0276 0.133383,0.0965 0.344682,0.20671 0.229673,0.11942 0.385508,0.17932 0.468188,0.17932 0.0689,0 0.128789,-0.11714 0.179317,-0.3514 0.02297,-0.15159 0.0484,-0.30317 0.07596,-0.45476 0.01837,-0.0827 0.01361,-0.13091 -0.01395,-0.14469 -0.02756,-0.0138 -0.05725,-0.0254 -0.0894,-0.0346 -0.275608,-0.13781 -0.482314,-0.23427 -0.620117,-0.28939 z"
       sodipodi:nodetypes="cccccsccsccccccccsccsccccccccsccscccccccsccccscccsccscscsccsssccccscccscscccccssssscccccsccsccccccccsccsccccccccsccsccc" />
    <text
       xml:space="preserve"
       style="font-size:5.64444px;line-height:0;font-family:Creampie;-inkscape-font-specification:Creampie;letter-spacing:0.148167px;word-spacing:0px;fill:#000000;stroke:#000000;stroke-width:0.264583"
       x="55.004066"
       y="132.64586"
       id="text1"><tspan
         sodipodi:role="line"
         id="tspan1"
         style="stroke-width:0.264583"
         x="55.004066"
         y="132.64586" /></text>
    <text
       xml:space="preserve"
       style="font-size:5.64444px;line-height:0;font-family:Creampie;-inkscape-font-specification:Creampie;letter-spacing:0.148167px;word-spacing:0px;fill:#000000;stroke:#000000;stroke-width:0.264583"
       x="15.902536"
       y="112.2532"
       id="text6"><tspan
         sodipodi:role="line"
         id="tspan5"
         style="stroke-width:0.264583"
         x="15.902536"
         y="112.2532" /></text>
    <text
       xml:space="preserve"
       style="font-size:5.64444px;line-height:0;font-family:Creampie;-inkscape-font-specification:Creampie;letter-spacing:0.148167px;word-spacing:0px;fill:#000000;stroke:#000000;stroke-width:0.264583"
       x="7.2964578"
       y="112.2532"
       id="text10"><tspan
         sodipodi:role="line"
         id="tspan10"
         style="stroke-width:0.264583"
         x="7.2964578"
         y="112.2532" /></text>
  </g>
</svg>
